<svg width="120" height="20" viewBox="0 0 120 20" fill="none" xmlns="http://www.w3.org/2000/svg">
<g clip-path="url(#clip0_484_7737)">
<path d="M42.2168 19.4583H48.2569L47.9893 10.4236H48.0976L53.335 19.4583H59.8275V0.535084H53.7874L54.055 10.1305H53.953L48.55 0.535084H42.2168V19.4583Z" fill="white"/>
<path d="M73.234 5.90622H77.8852V0.535084H62.2178V5.90622H66.8689V19.4583H73.234V5.90622Z" fill="white"/>
<path d="M86.6836 0.535084H80.2676V19.4583H86.6836V0.535084Z" fill="white"/>
<path d="M90.6401 19.4583H96.6867L96.4191 10.4236H96.5274L101.765 19.4583H108.264V0.535084H102.217L102.485 10.1305H102.383L96.9797 0.535084H90.6401V19.4583Z" fill="white"/>
<path d="M10.2899 0C13.2017 0 15.9605 1.01306 17.6935 2.61867L13.7942 7.32717C13.0997 6.39057 11.9783 5.90634 10.6658 5.90634C8.55686 5.90634 6.84294 7.48646 6.84294 9.99681C6.84294 12.5072 8.60147 14.0363 10.6658 14.0363C12.1058 14.0363 13.2017 13.3418 13.7942 12.5135L17.6935 17.1902C16.0115 18.8723 13.4438 20 10.2899 20C4.56833 20 0 15.9605 0 9.99681C0 4.03313 4.56833 0 10.2899 0Z" fill="white"/>
<path d="M29.009 14.1128C31.1498 14.1128 32.749 12.3479 32.749 9.8885C32.749 7.42912 31.1434 5.82351 29.009 5.82351C26.8745 5.82351 25.2689 7.42912 25.2689 9.8885C25.2689 12.3479 26.849 14.1128 29.009 14.1128ZM29.009 0C34.9981 0 39.541 3.82287 39.541 9.8885C39.541 15.9541 34.9981 19.9936 29.009 19.9936C23.0198 19.9936 18.5024 15.9541 18.5024 9.8885C18.5024 3.82287 23.0198 0 29.009 0Z" fill="white"/>
<path d="M119.981 4.84219C119.981 7.21874 118.05 9.14929 115.674 9.14929C113.297 9.14929 111.367 7.21874 111.367 4.84219C111.367 2.46563 113.297 0.535084 115.674 0.535084C118.05 0.535084 119.981 2.46563 119.981 4.84219Z" fill="white"/>
<path d="M119.981 15.151C119.981 17.5276 118.05 19.4581 115.674 19.4581C113.297 19.4581 111.367 17.5276 111.367 15.151C111.367 12.7745 113.297 10.8439 115.674 10.8439C118.05 10.8439 119.981 12.7745 119.981 15.151Z" fill="white"/>
</g>
<defs>
<clipPath id="clip0_484_7737">
<rect width="119.981" height="20" fill="white"/>
</clipPath>
</defs>
</svg>
